<?xml version="1.0" standalone="no"?>
<!DOCTYPE svg PUBLIC "-//W3C//DTD SVG 20010904//EN" "http://www.w3.org/TR/2001/REC-SVG-20010904/DTD/svg10.dtd">
<svg xmlns="http://www.w3.org/2000/svg" version="1.0" width="106.000000pt" height="102.000000pt" viewBox="0 0 106.000000 102.000000" preserveAspectRatio="xMidYMid meet">
<metadata>
Created by potrace 1.16, written by Peter Selinger 2001-2019
<meta name="Producer" content="Online-Convert"/></metadata>
<g transform="translate(0.000000,102.000000) scale(0.100000,-0.100000)" fill="#000000" stroke="none">
<path d="M350 939 c-9 -16 -8 -26 5 -45 20 -31 56 -29 70 3 11 27 32 33 117 33 74 0 98 -6 98 -25 0 -21 28 -38 54 -31 29 7 41 37 26 66 -10 19 -49 28 -63 13 -10 -9 -237 -10 -237 0 0 4 -13 7 -30 7 -19 0 -33 -7 -40 -21z"/>
<path d="M185 898 c-52 -30 -61 -93 -19 -135 23 -22 31 -25 72 -19 38 5 49 3 68 -15 l22 -21 -30 -49 c-25 -40 -32 -63 -36 -123 -5 -80 6 -130 43 -187 l24 -37 -22 -20 c-18 -17 -31 -19 -69 -15 -42 5 -49 2 -72 -22 -35 -38 -34 -79 3 -116 17 -16 40 -29 54 -29 56 0 102 73 77 121 -10 18 -8 25 12 46 l24 24 68 -36 c101 -53 195 -48 289 13 l38 25 25 -24 c21 -21 23 -29 14 -58 -25 -88 76 -145 140 -81 29 29 26 84 -6 117 -23 22 -31 25 -73 19 -40 -5 -51 -3 -66 14 -18 19 -17 22 16 86 28 56 33 77 33 134 0 57 -5 78 -33 134 -33 64 -34 67 -16 86 15 17 26 19 66 14 42 -6 50 -3 73 19 49 49 27 130 -39 143 -66 12 -113 -42 -95 -108 9 -28 7 -36 -14 -57 l-24 -24 -30 22 c-95 67 -239 67 -334 0 l-30 -22 -25 25 c-21 22 -23 29 -13 47 35 67 -49 147 -115 109z m453 -143 c47 -20 107 -78 135 -130 17 -31 22 -57 22 -115 0 -90 -22 -138 -89 -197 -140 -123 -368 -57 -421 121 -19 63 -19 89 1 157 19 63 97 148 154 166 52 16 155 15 198 -2z"/>
<path d="M490 700 c0 -28 -29 -41 -55 -24 -19 13 -24 11 -50 -16 -22 -23 -26 -33 -17 -42 22 -22 14 -48 -18 -59 -26 -10 -30 -16 -30 -49 0 -35 3 -39 30 -45 22 -5 30 -12 30 -29 0 -12 -5 -27 -12 -34 -9 -9 -5 -19 17 -42 25 -27 31 -28 49 -17 30 19 56 10 56 -19 0 -22 4 -24 45 -24 38 0 45 3 45 20 0 28 32 42 57 25 18 -13 23 -11 47 14 23 24 26 32 17 49 -17 32 -13 42 19 53 26 10 30 16 30 49 0 33 -4 39 -30 49 -32 11 -40 37 -18 59 9 9 5 19 -17 41 -25 27 -30 29 -48 16 -25 -17 -57 -3 -57 25 0 17 -7 20 -45 20 -38 0 -45 -3 -45 -20z m70 -10 c0 -29 53 -54 80 -38 16 11 22 10 34 -7 10 -14 11 -23 3 -36 -15 -24 6 -69 33 -69 16 0 20 -7 20 -30 0 -23 -4 -30 -20 -30 -28 0 -48 -45 -33 -70 16 -25 -19 -59 -41 -41 -11 10 -21 9 -45 -4 -17 -8 -31 -22 -31 -30 0 -23 -47 -19 -53 5 -7 26 -54 45 -73 29 -20 -16 -59 18 -43 37 6 8 8 26 4 44 -5 23 -12 30 -31 30 -20 0 -24 5 -24 30 0 23 4 30 20 30 28 0 48 45 33 70 -16 25 19 59 41 41 19 -16 71 10 79 39 7 27 47 28 47 0z"/>
<path d="M97 693 c-9 -8 -9 -58 -1 -66 9 -9 9 -225 0 -234 -3 -3 -6 -16 -6 -28 0 -49 62 -63 82 -19 11 24 10 29 -20 54 -31 26 -32 28 -32 110 0 82 1 84 32 110 30 25 31 30 20 54 -8 19 -19 26 -40 26 -16 0 -32 -3 -35 -7z"/>
<path d="M907 693 c-17 -16 -6 -62 19 -81 25 -17 27 -24 27 -100 0 -78 -2 -83 -32 -111 -42 -39 -29 -80 27 -81 27 0 44 36 30 64 -14 27 -14 227 1 254 17 32 -1 62 -38 62 -15 0 -31 -3 -34 -7z"/>
<path d="M355 126 c-13 -19 -14 -29 -5 -45 10 -20 54 -29 63 -13 6 9 234 8 244 -1 16 -17 54 -6 65 18 9 21 8 28 -7 45 -23 26 -57 22 -70 -7 -11 -27 -32 -33 -110 -33 -78 0 -99 6 -110 33 -14 32 -50 34 -70 3z"/>
</g>
</svg>
